<svg width="27" height="29" viewBox="0 0 27 29" fill="none" xmlns="http://www.w3.org/2000/svg">
<path d="M1.3501 15.6499C1.3501 18.859 2.62491 21.9367 4.8941 24.2059C7.16329 26.4751 10.241 27.7499 13.4501 27.7499C16.6592 27.7499 19.7369 26.4751 22.0061 24.2059C24.2753 21.9367 25.5501 18.859 25.5501 15.6499H1.3501Z" stroke="black" stroke-width="1.5" stroke-linecap="round" stroke-linejoin="round"/>
<path d="M3.8501 11.5502C4.0273 10.2571 4.66683 9.07192 5.65038 8.21396C6.63392 7.356 7.89494 6.8833 9.2001 6.8833C10.5053 6.8833 11.7663 7.356 12.7498 8.21396C13.7334 9.07192 14.3729 10.2571 14.5501 11.5502" stroke="black" stroke-width="1.5" stroke-linecap="round" stroke-linejoin="round"/>
<path d="M11.0498 6.24997C11.7758 5.42873 12.6688 4.77196 13.669 4.32358C14.6693 3.8752 15.7537 3.64554 16.8498 3.64997C17.8826 3.64988 18.9051 3.8549 19.858 4.25313C20.8109 4.65135 21.6753 5.23485 22.4009 5.96977C23.1265 6.7047 23.699 7.57641 24.085 8.53432C24.4711 9.49223 24.6631 10.5173 24.6498 11.55" stroke="black" stroke-width="1.5" stroke-linecap="round" stroke-linejoin="round"/>
<path d="M13.6499 8.65015C14.4301 7.98656 15.4259 7.63093 16.4499 7.65015C17.5997 7.64986 18.704 8.09969 19.5263 8.90334C20.3487 9.707 20.8238 10.8006 20.8499 11.9502" stroke="black" stroke-width="1.5" stroke-linecap="round" stroke-linejoin="round"/>
<path d="M7.55019 6.55L1.4502 0.75" stroke="black" stroke-width="1.5" stroke-linecap="round" stroke-linejoin="round"/>
<path d="M4.25 9.55L0.75 6.25" stroke="black" stroke-width="1.5" stroke-linecap="round" stroke-linejoin="round"/>
</svg>
