<svg width="336" height="255" viewBox="0 0 336 255" fill="none" xmlns="http://www.w3.org/2000/svg">
<rect width="336" height="255" rx="21" fill="white"/>
<rect x="81" y="75" width="146" height="17" rx="8.5" transform="rotate(90 81 75)" fill="#859700"/>
<rect x="126" y="67" width="154" height="17" rx="8.5" transform="rotate(90 126 67)" fill="#859700"/>
<rect x="171" y="72" width="149" height="17" rx="8.5" transform="rotate(90 171 72)" fill="#859700"/>
<rect x="216" y="78" width="143" height="17" rx="8.5" transform="rotate(90 216 78)" fill="#859700"/>
<rect x="261" y="72" width="149" height="17" rx="8.5" transform="rotate(90 261 72)" fill="#859700"/>
<rect x="306" y="84" width="137" height="17" rx="8.5" transform="rotate(90 306 84)" fill="#859700"/>
<path d="M64.476 244.108C64.164 244.068 63.92 243.956 63.744 243.772C63.568 243.58 63.48 243.348 63.48 243.076C63.48 242.86 63.532 242.644 63.636 242.428L66.42 235.96C66.556 235.648 66.792 235.492 67.128 235.492C67.456 235.492 67.692 235.648 67.836 235.96L70.62 242.428C70.716 242.652 70.764 242.864 70.764 243.064C70.764 243.344 70.676 243.58 70.5 243.772C70.324 243.956 70.08 244.068 69.768 244.108L68.748 241.756H65.496L64.476 244.108ZM68.304 240.508L66.912 237.016L66.78 237.064L67.056 237.748L65.94 240.508H68.304ZM72.0177 238.864C72.0177 238.584 72.1217 238.352 72.3297 238.168C72.5377 237.984 72.8497 237.892 73.2657 237.892V238.552C73.1617 238.68 73.0857 238.784 73.0377 238.864L73.0857 238.912C73.3337 238.584 73.6137 238.332 73.9257 238.156C74.2377 237.98 74.6217 237.892 75.0777 237.892C75.7497 237.892 76.2937 238.088 76.7097 238.48C77.1337 238.872 77.3457 239.388 77.3457 240.028V241.972C77.3457 242.396 77.2417 242.772 77.0337 243.1C76.8257 243.42 76.5377 243.668 76.1697 243.844C75.8097 244.02 75.3977 244.108 74.9337 244.108C74.6137 244.108 74.2937 244.04 73.9737 243.904C73.6537 243.768 73.3817 243.588 73.1577 243.364L73.1217 243.424C73.1697 243.488 73.2537 243.572 73.3737 243.676V245.56C73.3737 246.192 72.9217 246.508 72.0177 246.508V238.864ZM74.6817 242.932C75.1057 242.932 75.4297 242.844 75.6537 242.668C75.8857 242.484 76.0017 242.228 76.0017 241.9V240.112C76.0017 239.768 75.8857 239.508 75.6537 239.332C75.4297 239.148 75.1057 239.056 74.6817 239.056C74.2977 239.056 73.9817 239.152 73.7337 239.344C73.4857 239.536 73.3617 239.772 73.3617 240.052V241.948C73.3617 242.228 73.4817 242.464 73.7217 242.656C73.9617 242.84 74.2817 242.932 74.6817 242.932ZM81.5903 239.056C81.1263 239.056 80.7463 239.188 80.4503 239.452C80.1543 239.708 80.0063 240.024 80.0063 240.4V243.244C80.0063 243.548 79.8943 243.768 79.6702 243.904C79.4543 244.04 79.1183 244.108 78.6623 244.108V238.96C78.6623 238.248 79.0903 237.892 79.9463 237.892V238.612C79.8343 238.74 79.7423 238.868 79.6702 238.996L79.7303 239.044C80.2503 238.276 80.8863 237.892 81.6383 237.892C81.9583 237.892 82.2023 237.976 82.3703 238.144C82.5383 238.304 82.6223 238.508 82.6223 238.756C82.6223 238.94 82.5743 239.104 82.4783 239.248C82.2463 239.12 81.9503 239.056 81.5903 239.056Z" fill="#323232"/>
<path d="M10.152 199C9.952 199 9.788 198.944 9.66 198.832C9.54 198.712 9.48 198.56 9.48 198.376C9.48 197.752 9.72 197.18 10.2 196.66C10.688 196.132 11.456 195.62 12.504 195.124C13.032 194.868 13.432 194.644 13.704 194.452C13.984 194.252 14.18 194.048 14.292 193.84C14.404 193.632 14.46 193.38 14.46 193.084C14.46 192.66 14.316 192.336 14.028 192.112C13.748 191.88 13.344 191.764 12.816 191.764C12.224 191.764 11.772 191.892 11.46 192.148C11.148 192.404 10.992 192.78 10.992 193.276C10.992 193.476 11.008 193.652 11.04 193.804C10.928 193.82 10.84 193.828 10.776 193.828C10.44 193.828 10.152 193.728 9.912 193.528C9.672 193.328 9.552 193.084 9.552 192.796C9.552 192.364 9.696 191.972 9.984 191.62C10.272 191.268 10.664 190.992 11.16 190.792C11.656 190.592 12.208 190.492 12.816 190.492C13.44 190.492 13.984 190.6 14.448 190.816C14.92 191.024 15.284 191.324 15.54 191.716C15.796 192.108 15.924 192.564 15.924 193.084C15.924 193.668 15.708 194.196 15.276 194.668C14.852 195.14 14.176 195.6 13.248 196.048C12.552 196.384 12.032 196.692 11.688 196.972C11.344 197.244 11.152 197.504 11.112 197.752H14.928C15.296 197.752 15.572 197.86 15.756 198.076C15.948 198.284 16.044 198.592 16.044 199H10.152ZM20.5074 199.108C19.8994 199.108 19.3394 198.992 18.8274 198.76C18.3234 198.52 17.9234 198.196 17.6274 197.788C17.3314 197.38 17.1834 196.928 17.1834 196.432V193.168C17.1834 192.672 17.3314 192.22 17.6274 191.812C17.9234 191.404 18.3234 191.084 18.8274 190.852C19.3394 190.612 19.8994 190.492 20.5074 190.492C21.1234 190.492 21.6834 190.612 22.1874 190.852C22.6994 191.084 23.0994 191.404 23.3874 191.812C23.6834 192.22 23.8314 192.672 23.8314 193.168V196.432C23.8314 196.928 23.6834 197.38 23.3874 197.788C23.0914 198.196 22.6874 198.52 22.1754 198.76C21.6714 198.992 21.1154 199.108 20.5074 199.108ZM20.5074 197.836C21.0754 197.836 21.5314 197.704 21.8754 197.44C22.2194 197.176 22.3914 196.824 22.3914 196.384V193.204C22.3914 192.772 22.2194 192.424 21.8754 192.16C21.5314 191.896 21.0754 191.764 20.5074 191.764C19.9474 191.764 19.4954 191.896 19.1514 192.16C18.8074 192.424 18.6354 192.772 18.6354 193.204V196.384C18.6354 196.824 18.8034 197.176 19.1394 197.44C19.4834 197.704 19.9394 197.836 20.5074 197.836ZM30.5162 198.724C30.3642 198.98 30.1282 199.108 29.8082 199.108C29.6562 199.108 29.5242 199.076 29.4122 199.012C29.3082 198.948 29.2082 198.844 29.1122 198.7L27.4202 196.156L26.5802 196.924V198.244C26.5802 198.548 26.4682 198.768 26.2442 198.904C26.0282 199.04 25.6962 199.108 25.2482 199.108V191.548C25.2482 190.844 25.6962 190.492 26.5922 190.492V195.46L29.3882 192.892C29.7322 193.18 29.9042 193.412 29.9042 193.588C29.9042 193.708 29.8722 193.812 29.8082 193.9C29.7522 193.98 29.6522 194.088 29.5082 194.224L28.2122 195.412L30.5162 198.724ZM34.2001 201.508C33.7441 201.508 33.3321 201.44 32.9641 201.304C32.6041 201.176 32.3201 200.996 32.1121 200.764C31.9041 200.54 31.8001 200.296 31.8001 200.032C31.8001 199.568 32.1241 199.336 32.7721 199.336C32.7961 199.68 32.9281 199.948 33.1681 200.14C33.4161 200.332 33.7601 200.428 34.2001 200.428C34.6881 200.428 35.0361 200.308 35.2441 200.068C35.4601 199.828 35.5681 199.492 35.5681 199.06V198.556C35.6881 198.468 35.7761 198.384 35.8321 198.304L35.7841 198.244C35.5681 198.46 35.2841 198.64 34.9321 198.784C34.5801 198.92 34.2481 198.988 33.9361 198.988C33.4881 198.988 33.0881 198.9 32.7361 198.724C32.3841 198.54 32.1041 198.288 31.8961 197.968C31.6961 197.648 31.5961 197.28 31.5961 196.864V195.028C31.5961 194.628 31.7001 194.264 31.9081 193.936C32.1241 193.608 32.4081 193.352 32.7601 193.168C33.1121 192.984 33.4921 192.892 33.9001 192.892C34.7001 192.892 35.3521 193.232 35.8561 193.912L35.9161 193.864C35.8201 193.736 35.7401 193.636 35.6761 193.564C35.6761 193.116 36.0961 192.892 36.9361 192.892V198.88C36.9361 199.392 36.8201 199.848 36.5881 200.248C36.3561 200.648 36.0321 200.956 35.6161 201.172C35.2001 201.396 34.7281 201.508 34.2001 201.508ZM34.2601 197.824C34.6361 197.824 34.9521 197.728 35.2081 197.536C35.4641 197.336 35.5921 197.1 35.5921 196.828V195.052C35.5921 194.772 35.4641 194.536 35.2081 194.344C34.9601 194.144 34.6481 194.044 34.2721 194.044C33.8481 194.044 33.5201 194.136 33.2881 194.32C33.0561 194.504 32.9401 194.768 32.9401 195.112V196.78C32.9401 197.108 33.0521 197.364 33.2761 197.548C33.5081 197.732 33.8361 197.824 34.2601 197.824Z" fill="#323232"/>
<path d="M13.608 160.924H9.984C9.792 160.924 9.64 160.872 9.528 160.768C9.416 160.664 9.36 160.528 9.36 160.36C9.36 160.192 9.412 160.044 9.516 159.916L13.8 154.72C13.856 154.648 13.94 154.592 14.052 154.552C14.164 154.512 14.288 154.492 14.424 154.492C14.616 154.492 14.768 154.552 14.88 154.672C15 154.792 15.06 154.944 15.06 155.128V159.676H16.452C16.452 160.108 16.376 160.424 16.224 160.624C16.072 160.824 15.832 160.924 15.504 160.924H15.06V162.136C15.06 162.472 14.94 162.72 14.7 162.88C14.468 163.032 14.104 163.108 13.608 163.108V160.924ZM13.692 159.676V156.904L14.1 156.352L14.016 156.292L11.28 159.676H13.692ZM20.8004 163.108C20.1924 163.108 19.6324 162.992 19.1204 162.76C18.6164 162.52 18.2164 162.196 17.9204 161.788C17.6244 161.38 17.4764 160.928 17.4764 160.432V157.168C17.4764 156.672 17.6244 156.22 17.9204 155.812C18.2164 155.404 18.6164 155.084 19.1204 154.852C19.6324 154.612 20.1924 154.492 20.8004 154.492C21.4164 154.492 21.9764 154.612 22.4804 154.852C22.9924 155.084 23.3924 155.404 23.6804 155.812C23.9764 156.22 24.1244 156.672 24.1244 157.168V160.432C24.1244 160.928 23.9764 161.38 23.6804 161.788C23.3844 162.196 22.9804 162.52 22.4684 162.76C21.9644 162.992 21.4084 163.108 20.8004 163.108ZM20.8004 161.836C21.3684 161.836 21.8244 161.704 22.1684 161.44C22.5124 161.176 22.6844 160.824 22.6844 160.384V157.204C22.6844 156.772 22.5124 156.424 22.1684 156.16C21.8244 155.896 21.3684 155.764 20.8004 155.764C20.2404 155.764 19.7884 155.896 19.4444 156.16C19.1004 156.424 18.9284 156.772 18.9284 157.204V160.384C18.9284 160.824 19.0964 161.176 19.4324 161.44C19.7764 161.704 20.2324 161.836 20.8004 161.836ZM30.8092 162.724C30.6572 162.98 30.4212 163.108 30.1012 163.108C29.9492 163.108 29.8172 163.076 29.7052 163.012C29.6012 162.948 29.5012 162.844 29.4052 162.7L27.7132 160.156L26.8732 160.924V162.244C26.8732 162.548 26.7612 162.768 26.5372 162.904C26.3212 163.04 25.9892 163.108 25.5412 163.108V155.548C25.5412 154.844 25.9892 154.492 26.8852 154.492V159.46L29.6812 156.892C30.0252 157.18 30.1972 157.412 30.1972 157.588C30.1972 157.708 30.1652 157.812 30.1012 157.9C30.0452 157.98 29.9452 158.088 29.8012 158.224L28.5052 159.412L30.8092 162.724ZM34.4931 165.508C34.0371 165.508 33.6251 165.44 33.2571 165.304C32.8971 165.176 32.6131 164.996 32.4051 164.764C32.1971 164.54 32.0931 164.296 32.0931 164.032C32.0931 163.568 32.4171 163.336 33.0651 163.336C33.0891 163.68 33.2211 163.948 33.4611 164.14C33.7091 164.332 34.0531 164.428 34.4931 164.428C34.9811 164.428 35.3291 164.308 35.5371 164.068C35.7531 163.828 35.8611 163.492 35.8611 163.06V162.556C35.9811 162.468 36.0691 162.384 36.1251 162.304L36.0771 162.244C35.8611 162.46 35.5771 162.64 35.2251 162.784C34.8731 162.92 34.5411 162.988 34.2291 162.988C33.7811 162.988 33.3811 162.9 33.0291 162.724C32.6771 162.54 32.3971 162.288 32.1891 161.968C31.9891 161.648 31.8891 161.28 31.8891 160.864V159.028C31.8891 158.628 31.9931 158.264 32.2011 157.936C32.4171 157.608 32.7011 157.352 33.0531 157.168C33.4051 156.984 33.7851 156.892 34.1931 156.892C34.9931 156.892 35.6451 157.232 36.1491 157.912L36.2091 157.864C36.1131 157.736 36.0331 157.636 35.9691 157.564C35.9691 157.116 36.3891 156.892 37.2291 156.892V162.88C37.2291 163.392 37.1131 163.848 36.8811 164.248C36.6491 164.648 36.3251 164.956 35.9091 165.172C35.4931 165.396 35.0211 165.508 34.4931 165.508ZM34.5531 161.824C34.9291 161.824 35.2451 161.728 35.5011 161.536C35.7571 161.336 35.8851 161.1 35.8851 160.828V159.052C35.8851 158.772 35.7571 158.536 35.5011 158.344C35.2531 158.144 34.9411 158.044 34.5651 158.044C34.1411 158.044 33.8131 158.136 33.5811 158.32C33.3491 158.504 33.2331 158.768 33.2331 159.112V160.78C33.2331 161.108 33.3451 161.364 33.5691 161.548C33.8011 161.732 34.1291 161.824 34.5531 161.824Z" fill="#323232"/>
<path d="M12.912 132.108C12.24 132.108 11.644 131.972 11.124 131.7C10.604 131.428 10.2 131.048 9.912 130.56C9.624 130.072 9.48 129.512 9.48 128.88C9.48 128.464 9.568 128.044 9.744 127.62C9.92 127.188 10.168 126.8 10.488 126.456L12.876 123.828C12.988 123.708 13.096 123.624 13.2 123.576C13.312 123.52 13.444 123.492 13.596 123.492C13.972 123.492 14.288 123.644 14.544 123.948L12.876 125.784C12.612 125.856 12.392 125.932 12.216 126.012L12.276 126.144C12.42 126.08 12.596 126.028 12.804 125.988C13.012 125.94 13.196 125.916 13.356 125.916C13.916 125.916 14.42 126.048 14.868 126.312C15.324 126.568 15.68 126.92 15.936 127.368C16.2 127.816 16.332 128.32 16.332 128.88C16.332 129.504 16.184 130.06 15.888 130.548C15.6 131.036 15.196 131.42 14.676 131.7C14.156 131.972 13.568 132.108 12.912 132.108ZM12.912 130.86C13.296 130.86 13.64 130.776 13.944 130.608C14.256 130.44 14.496 130.204 14.664 129.9C14.84 129.596 14.928 129.256 14.928 128.88C14.928 128.496 14.84 128.152 14.664 127.848C14.496 127.544 14.256 127.308 13.944 127.14C13.64 126.972 13.296 126.888 12.912 126.888C12.328 126.888 11.848 127.076 11.472 127.452C11.096 127.82 10.908 128.296 10.908 128.88C10.908 129.256 10.992 129.596 11.16 129.9C11.336 130.204 11.576 130.44 11.88 130.608C12.184 130.776 12.528 130.86 12.912 130.86ZM20.8004 132.108C20.1924 132.108 19.6324 131.992 19.1204 131.76C18.6164 131.52 18.2164 131.196 17.9204 130.788C17.6244 130.38 17.4764 129.928 17.4764 129.432V126.168C17.4764 125.672 17.6244 125.22 17.9204 124.812C18.2164 124.404 18.6164 124.084 19.1204 123.852C19.6324 123.612 20.1924 123.492 20.8004 123.492C21.4164 123.492 21.9764 123.612 22.4804 123.852C22.9924 124.084 23.3924 124.404 23.6804 124.812C23.9764 125.22 24.1244 125.672 24.1244 126.168V129.432C24.1244 129.928 23.9764 130.38 23.6804 130.788C23.3844 131.196 22.9804 131.52 22.4684 131.76C21.9644 131.992 21.4084 132.108 20.8004 132.108ZM20.8004 130.836C21.3684 130.836 21.8244 130.704 22.1684 130.44C22.5124 130.176 22.6844 129.824 22.6844 129.384V126.204C22.6844 125.772 22.5124 125.424 22.1684 125.16C21.8244 124.896 21.3684 124.764 20.8004 124.764C20.2404 124.764 19.7884 124.896 19.4444 125.16C19.1004 125.424 18.9284 125.772 18.9284 126.204V129.384C18.9284 129.824 19.0964 130.176 19.4324 130.44C19.7764 130.704 20.2324 130.836 20.8004 130.836ZM30.8092 131.724C30.6572 131.98 30.4212 132.108 30.1012 132.108C29.9492 132.108 29.8172 132.076 29.7052 132.012C29.6012 131.948 29.5012 131.844 29.4052 131.7L27.7132 129.156L26.8732 129.924V131.244C26.8732 131.548 26.7612 131.768 26.5372 131.904C26.3212 132.04 25.9892 132.108 25.5412 132.108V124.548C25.5412 123.844 25.9892 123.492 26.8852 123.492V128.46L29.6812 125.892C30.0252 126.18 30.1972 126.412 30.1972 126.588C30.1972 126.708 30.1652 126.812 30.1012 126.9C30.0452 126.98 29.9452 127.088 29.8012 127.224L28.5052 128.412L30.8092 131.724ZM34.4931 134.508C34.0371 134.508 33.6251 134.44 33.2571 134.304C32.8971 134.176 32.6131 133.996 32.4051 133.764C32.1971 133.54 32.0931 133.296 32.0931 133.032C32.0931 132.568 32.4171 132.336 33.0651 132.336C33.0891 132.68 33.2211 132.948 33.4611 133.14C33.7091 133.332 34.0531 133.428 34.4931 133.428C34.9811 133.428 35.3291 133.308 35.5371 133.068C35.7531 132.828 35.8611 132.492 35.8611 132.06V131.556C35.9811 131.468 36.0691 131.384 36.1251 131.304L36.0771 131.244C35.8611 131.46 35.5771 131.64 35.2251 131.784C34.8731 131.92 34.5411 131.988 34.2291 131.988C33.7811 131.988 33.3811 131.9 33.0291 131.724C32.6771 131.54 32.3971 131.288 32.1891 130.968C31.9891 130.648 31.8891 130.28 31.8891 129.864V128.028C31.8891 127.628 31.9931 127.264 32.2011 126.936C32.4171 126.608 32.7011 126.352 33.0531 126.168C33.4051 125.984 33.7851 125.892 34.1931 125.892C34.9931 125.892 35.6451 126.232 36.1491 126.912L36.2091 126.864C36.1131 126.736 36.0331 126.636 35.9691 126.564C35.9691 126.116 36.3891 125.892 37.2291 125.892V131.88C37.2291 132.392 37.1131 132.848 36.8811 133.248C36.6491 133.648 36.3251 133.956 35.9091 134.172C35.4931 134.396 35.0211 134.508 34.4931 134.508ZM34.5531 130.824C34.9291 130.824 35.2451 130.728 35.5011 130.536C35.7571 130.336 35.8851 130.1 35.8851 129.828V128.052C35.8851 127.772 35.7571 127.536 35.5011 127.344C35.2531 127.144 34.9411 127.044 34.5651 127.044C34.1411 127.044 33.8131 127.136 33.5811 127.32C33.3491 127.504 33.2331 127.768 33.2331 128.112V129.78C33.2331 130.108 33.3451 130.364 33.5691 130.548C33.8011 130.732 34.1291 130.824 34.5531 130.824Z" fill="#323232"/>
<path d="M12.864 101.12C12.176 101.12 11.576 101.016 11.064 100.808C10.56 100.6 10.168 100.304 9.888 99.92C9.616 99.536 9.48 99.084 9.48 98.564C9.48 98.116 9.604 97.724 9.852 97.388C10.108 97.044 10.48 96.772 10.968 96.572C10.576 96.372 10.276 96.124 10.068 95.828C9.868 95.532 9.768 95.2 9.768 94.832C9.768 94.376 9.9 93.972 10.164 93.62C10.428 93.26 10.792 92.984 11.256 92.792C11.728 92.592 12.264 92.492 12.864 92.492C13.472 92.492 14.008 92.592 14.472 92.792C14.944 92.984 15.308 93.256 15.564 93.608C15.828 93.96 15.96 94.368 15.96 94.832C15.96 95.208 15.86 95.544 15.66 95.84C15.46 96.128 15.164 96.372 14.772 96.572C15.252 96.772 15.616 97.044 15.864 97.388C16.12 97.724 16.248 98.116 16.248 98.564C16.248 99.084 16.112 99.536 15.84 99.92C15.568 100.304 15.176 100.6 14.664 100.808C14.16 101.016 13.56 101.12 12.864 101.12ZM12.864 96.068C13.384 96.068 13.792 95.964 14.088 95.756C14.392 95.54 14.544 95.252 14.544 94.892C14.544 94.5 14.4 94.208 14.112 94.016C13.832 93.816 13.416 93.716 12.864 93.716C12.32 93.716 11.904 93.816 11.616 94.016C11.328 94.216 11.184 94.508 11.184 94.892C11.184 95.244 11.336 95.528 11.64 95.744C11.952 95.96 12.36 96.068 12.864 96.068ZM12.864 99.884C13.512 99.884 14 99.772 14.328 99.548C14.664 99.316 14.832 98.976 14.832 98.528C14.832 98.08 14.66 97.736 14.316 97.496C13.98 97.248 13.496 97.124 12.864 97.124C12.248 97.124 11.764 97.248 11.412 97.496C11.068 97.744 10.896 98.088 10.896 98.528C10.896 98.968 11.064 99.304 11.4 99.536C11.744 99.768 12.232 99.884 12.864 99.884ZM20.7067 101.108C20.0987 101.108 19.5387 100.992 19.0267 100.76C18.5227 100.52 18.1227 100.196 17.8267 99.788C17.5307 99.38 17.3827 98.928 17.3827 98.432V95.168C17.3827 94.672 17.5307 94.22 17.8267 93.812C18.1227 93.404 18.5227 93.084 19.0267 92.852C19.5387 92.612 20.0987 92.492 20.7067 92.492C21.3227 92.492 21.8827 92.612 22.3867 92.852C22.8987 93.084 23.2987 93.404 23.5867 93.812C23.8827 94.22 24.0307 94.672 24.0307 95.168V98.432C24.0307 98.928 23.8827 99.38 23.5867 99.788C23.2907 100.196 22.8867 100.52 22.3747 100.76C21.8707 100.992 21.3147 101.108 20.7067 101.108ZM20.7067 99.836C21.2747 99.836 21.7307 99.704 22.0747 99.44C22.4187 99.176 22.5907 98.824 22.5907 98.384V95.204C22.5907 94.772 22.4187 94.424 22.0747 94.16C21.7307 93.896 21.2747 93.764 20.7067 93.764C20.1467 93.764 19.6947 93.896 19.3507 94.16C19.0067 94.424 18.8347 94.772 18.8347 95.204V98.384C18.8347 98.824 19.0027 99.176 19.3387 99.44C19.6827 99.704 20.1387 99.836 20.7067 99.836ZM30.7154 100.724C30.5634 100.98 30.3274 101.108 30.0074 101.108C29.8554 101.108 29.7234 101.076 29.6114 101.012C29.5074 100.948 29.4074 100.844 29.3114 100.7L27.6194 98.156L26.7794 98.924V100.244C26.7794 100.548 26.6674 100.768 26.4434 100.904C26.2274 101.04 25.8954 101.108 25.4474 101.108V93.548C25.4474 92.844 25.8954 92.492 26.7914 92.492V97.46L29.5874 94.892C29.9314 95.18 30.1034 95.412 30.1034 95.588C30.1034 95.708 30.0714 95.812 30.0074 95.9C29.9514 95.98 29.8514 96.088 29.7074 96.224L28.4114 97.412L30.7154 100.724ZM34.3993 103.508C33.9433 103.508 33.5313 103.44 33.1633 103.304C32.8033 103.176 32.5193 102.996 32.3113 102.764C32.1033 102.54 31.9993 102.296 31.9993 102.032C31.9993 101.568 32.3233 101.336 32.9713 101.336C32.9953 101.68 33.1273 101.948 33.3673 102.14C33.6153 102.332 33.9593 102.428 34.3993 102.428C34.8873 102.428 35.2353 102.308 35.4433 102.068C35.6593 101.828 35.7673 101.492 35.7673 101.06V100.556C35.8873 100.468 35.9753 100.384 36.0313 100.304L35.9833 100.244C35.7673 100.46 35.4833 100.64 35.1313 100.784C34.7793 100.92 34.4473 100.988 34.1353 100.988C33.6873 100.988 33.2873 100.9 32.9353 100.724C32.5833 100.54 32.3033 100.288 32.0953 99.968C31.8953 99.648 31.7953 99.28 31.7953 98.864V97.028C31.7953 96.628 31.8993 96.264 32.1073 95.936C32.3233 95.608 32.6073 95.352 32.9593 95.168C33.3113 94.984 33.6913 94.892 34.0993 94.892C34.8993 94.892 35.5513 95.232 36.0553 95.912L36.1153 95.864C36.0193 95.736 35.9393 95.636 35.8753 95.564C35.8753 95.116 36.2953 94.892 37.1353 94.892V100.88C37.1353 101.392 37.0193 101.848 36.7873 102.248C36.5553 102.648 36.2313 102.956 35.8153 103.172C35.3993 103.396 34.9273 103.508 34.3993 103.508ZM34.4593 99.824C34.8353 99.824 35.1513 99.728 35.4073 99.536C35.6633 99.336 35.7913 99.1 35.7913 98.828V97.052C35.7913 96.772 35.6633 96.536 35.4073 96.344C35.1593 96.144 34.8473 96.044 34.4713 96.044C34.0473 96.044 33.7193 96.136 33.4873 96.32C33.2553 96.504 33.1393 96.768 33.1393 97.112V98.78C33.1393 99.108 33.2513 99.364 33.4753 99.548C33.7073 99.732 34.0353 99.824 34.4593 99.824Z" fill="#323232"/>
<path d="M11.028 63.848H10.38C10.068 63.848 9.82 63.736 9.636 63.512C9.452 63.28 9.36 62.976 9.36 62.6H11.808C11.992 62.6 12.148 62.66 12.276 62.78C12.412 62.9 12.48 63.048 12.48 63.224V70.004C12.48 70.356 12.356 70.628 12.108 70.82C11.86 71.012 11.5 71.108 11.028 71.108V63.848ZM17.2496 71.108C16.6416 71.108 16.0816 70.992 15.5696 70.76C15.0656 70.52 14.6656 70.196 14.3696 69.788C14.0736 69.38 13.9256 68.928 13.9256 68.432V65.168C13.9256 64.672 14.0736 64.22 14.3696 63.812C14.6656 63.404 15.0656 63.084 15.5696 62.852C16.0816 62.612 16.6416 62.492 17.2496 62.492C17.8656 62.492 18.4256 62.612 18.9296 62.852C19.4416 63.084 19.8416 63.404 20.1296 63.812C20.4256 64.22 20.5736 64.672 20.5736 65.168V68.432C20.5736 68.928 20.4256 69.38 20.1296 69.788C19.8336 70.196 19.4296 70.52 18.9176 70.76C18.4136 70.992 17.8576 71.108 17.2496 71.108ZM17.2496 69.836C17.8176 69.836 18.2736 69.704 18.6176 69.44C18.9616 69.176 19.1336 68.824 19.1336 68.384V65.204C19.1336 64.772 18.9616 64.424 18.6176 64.16C18.2736 63.896 17.8176 63.764 17.2496 63.764C16.6896 63.764 16.2376 63.896 15.8936 64.16C15.5496 64.424 15.3776 64.772 15.3776 65.204V68.384C15.3776 68.824 15.5456 69.176 15.8816 69.44C16.2256 69.704 16.6816 69.836 17.2496 69.836ZM25.2184 71.108C24.6104 71.108 24.0504 70.992 23.5384 70.76C23.0344 70.52 22.6344 70.196 22.3384 69.788C22.0424 69.38 21.8944 68.928 21.8944 68.432V65.168C21.8944 64.672 22.0424 64.22 22.3384 63.812C22.6344 63.404 23.0344 63.084 23.5384 62.852C24.0504 62.612 24.6104 62.492 25.2184 62.492C25.8344 62.492 26.3944 62.612 26.8984 62.852C27.4104 63.084 27.8104 63.404 28.0984 63.812C28.3944 64.22 28.5424 64.672 28.5424 65.168V68.432C28.5424 68.928 28.3944 69.38 28.0984 69.788C27.8024 70.196 27.3984 70.52 26.8864 70.76C26.3824 70.992 25.8264 71.108 25.2184 71.108ZM25.2184 69.836C25.7864 69.836 26.2424 69.704 26.5864 69.44C26.9304 69.176 27.1024 68.824 27.1024 68.384V65.204C27.1024 64.772 26.9304 64.424 26.5864 64.16C26.2424 63.896 25.7864 63.764 25.2184 63.764C24.6584 63.764 24.2064 63.896 23.8624 64.16C23.5184 64.424 23.3464 64.772 23.3464 65.204V68.384C23.3464 68.824 23.5144 69.176 23.8504 69.44C24.1944 69.704 24.6504 69.836 25.2184 69.836ZM35.2271 70.724C35.0751 70.98 34.8391 71.108 34.5191 71.108C34.3671 71.108 34.2351 71.076 34.1231 71.012C34.0191 70.948 33.9191 70.844 33.8231 70.7L32.1311 68.156L31.2911 68.924V70.244C31.2911 70.548 31.1791 70.768 30.9551 70.904C30.7391 71.04 30.4071 71.108 29.9591 71.108V63.548C29.9591 62.844 30.4071 62.492 31.3031 62.492V67.46L34.0991 64.892C34.4431 65.18 34.6151 65.412 34.6151 65.588C34.6151 65.708 34.5831 65.812 34.5191 65.9C34.4631 65.98 34.3631 66.088 34.2191 66.224L32.9231 67.412L35.2271 70.724ZM38.911 73.508C38.455 73.508 38.043 73.44 37.675 73.304C37.315 73.176 37.031 72.996 36.823 72.764C36.615 72.54 36.511 72.296 36.511 72.032C36.511 71.568 36.835 71.336 37.483 71.336C37.507 71.68 37.639 71.948 37.879 72.14C38.127 72.332 38.471 72.428 38.911 72.428C39.399 72.428 39.747 72.308 39.955 72.068C40.171 71.828 40.279 71.492 40.279 71.06V70.556C40.399 70.468 40.487 70.384 40.543 70.304L40.495 70.244C40.279 70.46 39.995 70.64 39.643 70.784C39.291 70.92 38.959 70.988 38.647 70.988C38.199 70.988 37.799 70.9 37.447 70.724C37.095 70.54 36.815 70.288 36.607 69.968C36.407 69.648 36.307 69.28 36.307 68.864V67.028C36.307 66.628 36.411 66.264 36.619 65.936C36.835 65.608 37.119 65.352 37.471 65.168C37.823 64.984 38.203 64.892 38.611 64.892C39.411 64.892 40.063 65.232 40.567 65.912L40.627 65.864C40.531 65.736 40.451 65.636 40.387 65.564C40.387 65.116 40.807 64.892 41.647 64.892V70.88C41.647 71.392 41.531 71.848 41.299 72.248C41.067 72.648 40.743 72.956 40.327 73.172C39.911 73.396 39.439 73.508 38.911 73.508ZM38.971 69.824C39.347 69.824 39.663 69.728 39.919 69.536C40.175 69.336 40.303 69.1 40.303 68.828V67.052C40.303 66.772 40.175 66.536 39.919 66.344C39.671 66.144 39.359 66.044 38.983 66.044C38.559 66.044 38.231 66.136 37.999 66.32C37.767 66.504 37.651 66.768 37.651 67.112V68.78C37.651 69.108 37.763 69.364 37.987 69.548C38.219 69.732 38.547 69.824 38.971 69.824Z" fill="#323232"/>
<path d="M198.476 244.108C198.164 244.068 197.92 243.956 197.744 243.772C197.568 243.58 197.48 243.348 197.48 243.076C197.48 242.86 197.532 242.644 197.636 242.428L200.42 235.96C200.556 235.648 200.792 235.492 201.128 235.492C201.456 235.492 201.692 235.648 201.836 235.96L204.62 242.428C204.716 242.652 204.764 242.864 204.764 243.064C204.764 243.344 204.676 243.58 204.5 243.772C204.324 243.956 204.08 244.068 203.768 244.108L202.748 241.756H199.496L198.476 244.108ZM202.304 240.508L200.912 237.016L200.78 237.064L201.056 237.748L199.94 240.508H202.304ZM206.018 238.864C206.018 238.584 206.122 238.352 206.33 238.168C206.538 237.984 206.85 237.892 207.266 237.892V238.552C207.162 238.68 207.086 238.784 207.038 238.864L207.086 238.912C207.334 238.584 207.614 238.332 207.926 238.156C208.238 237.98 208.622 237.892 209.078 237.892C209.75 237.892 210.294 238.088 210.71 238.48C211.134 238.872 211.346 239.388 211.346 240.028V241.972C211.346 242.396 211.242 242.772 211.034 243.1C210.826 243.42 210.538 243.668 210.17 243.844C209.81 244.02 209.398 244.108 208.934 244.108C208.614 244.108 208.294 244.04 207.974 243.904C207.654 243.768 207.382 243.588 207.158 243.364L207.122 243.424C207.17 243.488 207.254 243.572 207.374 243.676V245.56C207.374 246.192 206.922 246.508 206.018 246.508V238.864ZM208.682 242.932C209.106 242.932 209.43 242.844 209.654 242.668C209.886 242.484 210.002 242.228 210.002 241.9V240.112C210.002 239.768 209.886 239.508 209.654 239.332C209.43 239.148 209.106 239.056 208.682 239.056C208.298 239.056 207.982 239.152 207.734 239.344C207.486 239.536 207.362 239.772 207.362 240.052V241.948C207.362 242.228 207.482 242.464 207.722 242.656C207.962 242.84 208.282 242.932 208.682 242.932ZM215.59 239.056C215.126 239.056 214.746 239.188 214.45 239.452C214.154 239.708 214.006 240.024 214.006 240.4V243.244C214.006 243.548 213.894 243.768 213.67 243.904C213.454 244.04 213.118 244.108 212.662 244.108V238.96C212.662 238.248 213.09 237.892 213.946 237.892V238.612C213.834 238.74 213.742 238.868 213.67 238.996L213.73 239.044C214.25 238.276 214.886 237.892 215.638 237.892C215.958 237.892 216.202 237.976 216.37 238.144C216.538 238.304 216.622 238.508 216.622 238.756C216.622 238.94 216.574 239.104 216.478 239.248C216.246 239.12 215.95 239.056 215.59 239.056Z" fill="#323232"/>
<path d="M105.756 236.596C105.756 236.252 105.884 235.98 106.14 235.78C106.404 235.58 106.756 235.48 107.196 235.48L109.848 242.032L109.584 242.716L109.692 242.764L112.524 235.492C112.972 235.492 113.324 235.592 113.58 235.792C113.844 235.992 113.976 236.264 113.976 236.608V244.108C113.032 244.108 112.56 243.744 112.56 243.016V238.768L112.932 237.76L112.812 237.724L110.448 243.712C110.4 243.824 110.324 243.92 110.22 244C110.116 244.072 110 244.108 109.872 244.108C109.736 244.108 109.612 244.072 109.5 244C109.396 243.928 109.32 243.828 109.272 243.7L106.92 237.7L106.8 237.748L107.172 238.756V243.016C107.172 243.744 106.7 244.108 105.756 244.108V236.596ZM117.463 244.108C117.039 244.108 116.655 244.028 116.311 243.868C115.967 243.708 115.695 243.476 115.495 243.172C115.295 242.868 115.195 242.512 115.195 242.104C115.195 241.688 115.299 241.328 115.507 241.024C115.723 240.712 116.015 240.476 116.383 240.316C116.751 240.148 117.163 240.064 117.619 240.064C118.347 240.064 118.959 240.312 119.455 240.808L119.515 240.748C119.371 240.604 119.255 240.5 119.167 240.436V240.1C119.167 239.748 119.047 239.472 118.807 239.272C118.567 239.064 118.231 238.96 117.799 238.96C117.415 238.96 117.079 239.036 116.791 239.188C116.503 239.332 116.271 239.548 116.095 239.836C115.935 239.78 115.799 239.692 115.687 239.572C115.583 239.452 115.531 239.324 115.531 239.188C115.531 238.956 115.639 238.74 115.855 238.54C116.071 238.34 116.359 238.184 116.719 238.072C117.087 237.952 117.483 237.892 117.907 237.892C118.723 237.892 119.355 238.088 119.803 238.48C120.259 238.864 120.487 239.392 120.487 240.064V243.172C120.487 243.5 120.387 243.74 120.187 243.892C119.987 244.036 119.667 244.108 119.227 244.108V243.592C119.371 243.448 119.467 243.344 119.515 243.28L119.455 243.232C119.199 243.52 118.911 243.74 118.591 243.892C118.279 244.036 117.903 244.108 117.463 244.108ZM117.775 243.1C118.215 243.1 118.559 243.012 118.807 242.836C119.063 242.66 119.191 242.412 119.191 242.092C119.191 241.772 119.063 241.524 118.807 241.348C118.559 241.164 118.219 241.072 117.787 241.072C117.395 241.072 117.083 241.164 116.851 241.348C116.627 241.524 116.515 241.772 116.515 242.092C116.515 242.42 116.627 242.672 116.851 242.848C117.075 243.016 117.383 243.1 117.775 243.1ZM121.982 246.508C121.694 246.508 121.47 246.412 121.31 246.22C121.15 246.028 121.066 245.748 121.058 245.38C121.282 245.42 121.474 245.44 121.634 245.44C121.954 245.44 122.206 245.348 122.39 245.164C122.582 244.988 122.786 244.656 123.002 244.168L123.218 243.688L120.878 238C120.934 237.968 121.022 237.944 121.142 237.928C121.27 237.904 121.378 237.892 121.466 237.892C121.674 237.892 121.862 237.94 122.03 238.036C122.206 238.124 122.326 238.252 122.39 238.42L123.782 242.044L123.602 242.572L123.686 242.608L125.33 238.42C125.402 238.252 125.522 238.124 125.69 238.036C125.858 237.94 126.046 237.892 126.254 237.892C126.342 237.892 126.446 237.904 126.566 237.928C126.694 237.944 126.786 237.968 126.842 238L124.154 244.564C123.882 245.22 123.578 245.708 123.242 246.028C122.906 246.348 122.486 246.508 121.982 246.508Z" fill="#323232"/>
<path d="M242.756 236.596C242.756 236.252 242.884 235.98 243.14 235.78C243.404 235.58 243.756 235.48 244.196 235.48L246.848 242.032L246.584 242.716L246.692 242.764L249.524 235.492C249.972 235.492 250.324 235.592 250.58 235.792C250.844 235.992 250.976 236.264 250.976 236.608V244.108C250.032 244.108 249.56 243.744 249.56 243.016V238.768L249.932 237.76L249.812 237.724L247.448 243.712C247.4 243.824 247.324 243.92 247.22 244C247.116 244.072 247 244.108 246.872 244.108C246.736 244.108 246.612 244.072 246.5 244C246.396 243.928 246.32 243.828 246.272 243.7L243.92 237.7L243.8 237.748L244.172 238.756V243.016C244.172 243.744 243.7 244.108 242.756 244.108V236.596ZM254.463 244.108C254.039 244.108 253.655 244.028 253.311 243.868C252.967 243.708 252.695 243.476 252.495 243.172C252.295 242.868 252.195 242.512 252.195 242.104C252.195 241.688 252.299 241.328 252.507 241.024C252.723 240.712 253.015 240.476 253.383 240.316C253.751 240.148 254.163 240.064 254.619 240.064C255.347 240.064 255.959 240.312 256.455 240.808L256.515 240.748C256.371 240.604 256.255 240.5 256.167 240.436V240.1C256.167 239.748 256.047 239.472 255.807 239.272C255.567 239.064 255.231 238.96 254.799 238.96C254.415 238.96 254.079 239.036 253.791 239.188C253.503 239.332 253.271 239.548 253.095 239.836C252.935 239.78 252.799 239.692 252.687 239.572C252.583 239.452 252.531 239.324 252.531 239.188C252.531 238.956 252.639 238.74 252.855 238.54C253.071 238.34 253.359 238.184 253.719 238.072C254.087 237.952 254.483 237.892 254.907 237.892C255.723 237.892 256.355 238.088 256.803 238.48C257.259 238.864 257.487 239.392 257.487 240.064V243.172C257.487 243.5 257.387 243.74 257.187 243.892C256.987 244.036 256.667 244.108 256.227 244.108V243.592C256.371 243.448 256.467 243.344 256.515 243.28L256.455 243.232C256.199 243.52 255.911 243.74 255.591 243.892C255.279 244.036 254.903 244.108 254.463 244.108ZM254.775 243.1C255.215 243.1 255.559 243.012 255.807 242.836C256.063 242.66 256.191 242.412 256.191 242.092C256.191 241.772 256.063 241.524 255.807 241.348C255.559 241.164 255.219 241.072 254.787 241.072C254.395 241.072 254.083 241.164 253.851 241.348C253.627 241.524 253.515 241.772 253.515 242.092C253.515 242.42 253.627 242.672 253.851 242.848C254.075 243.016 254.383 243.1 254.775 243.1ZM258.982 246.508C258.694 246.508 258.47 246.412 258.31 246.22C258.15 246.028 258.066 245.748 258.058 245.38C258.282 245.42 258.474 245.44 258.634 245.44C258.954 245.44 259.206 245.348 259.39 245.164C259.582 244.988 259.786 244.656 260.002 244.168L260.218 243.688L257.878 238C257.934 237.968 258.022 237.944 258.142 237.928C258.27 237.904 258.378 237.892 258.466 237.892C258.674 237.892 258.862 237.94 259.03 238.036C259.206 238.124 259.326 238.252 259.39 238.42L260.782 242.044L260.602 242.572L260.686 242.608L262.33 238.42C262.402 238.252 262.522 238.124 262.69 238.036C262.858 237.94 263.046 237.892 263.254 237.892C263.342 237.892 263.446 237.904 263.566 237.928C263.694 237.944 263.786 237.968 263.842 238L261.154 244.564C260.882 245.22 260.578 245.708 260.242 246.028C259.906 246.348 259.486 246.508 258.982 246.508Z" fill="#323232"/>
<path d="M154.564 244.108C153.972 244.108 153.436 243.996 152.956 243.772C152.476 243.54 152.1 243.224 151.828 242.824C151.556 242.416 151.42 241.964 151.42 241.468C151.42 241.156 151.548 240.936 151.804 240.808C152.068 240.68 152.428 240.616 152.884 240.616C152.86 240.744 152.848 240.916 152.848 241.132C152.848 241.676 152.996 242.096 153.292 242.392C153.588 242.688 154.012 242.836 154.564 242.836C155.108 242.836 155.528 242.68 155.824 242.368C156.128 242.056 156.28 241.608 156.28 241.024V236.86H154.984C154.304 236.86 153.964 236.44 153.964 235.6H157.024C157.224 235.6 157.392 235.664 157.528 235.792C157.664 235.92 157.732 236.076 157.732 236.26V241.024C157.732 241.616 157.596 242.148 157.324 242.62C157.052 243.084 156.676 243.448 156.196 243.712C155.716 243.976 155.172 244.108 154.564 244.108ZM164.347 243.04C164.347 243.384 164.239 243.648 164.023 243.832C163.815 244.016 163.495 244.108 163.063 244.108V243.364C163.135 243.276 163.227 243.156 163.339 243.004L163.267 242.956C163.027 243.316 162.731 243.6 162.379 243.808C162.035 244.008 161.643 244.108 161.203 244.108C160.787 244.108 160.411 244.016 160.075 243.832C159.747 243.64 159.491 243.38 159.307 243.052C159.123 242.716 159.031 242.336 159.031 241.912V238.756C159.031 238.452 159.139 238.232 159.355 238.096C159.579 237.96 159.923 237.892 160.387 237.892V241.828C160.387 242.172 160.487 242.444 160.687 242.644C160.887 242.836 161.183 242.932 161.575 242.932C161.999 242.932 162.343 242.804 162.607 242.548C162.871 242.292 163.003 241.972 163.003 241.588V238.756C163.003 238.452 163.111 238.232 163.327 238.096C163.551 237.96 163.891 237.892 164.347 237.892V243.04ZM165.854 238.96C165.854 238.248 166.282 237.892 167.138 237.892V238.624C167.042 238.728 166.95 238.852 166.862 238.996L166.934 239.044C167.166 238.692 167.47 238.412 167.846 238.204C168.23 237.996 168.65 237.892 169.106 237.892C169.522 237.892 169.886 237.984 170.198 238.168C170.51 238.344 170.75 238.592 170.918 238.912C171.094 239.232 171.182 239.588 171.182 239.98V243.244C171.182 243.548 171.07 243.768 170.846 243.904C170.622 244.04 170.286 244.108 169.838 244.108V240.16C169.838 239.832 169.738 239.568 169.538 239.368C169.346 239.16 169.062 239.056 168.686 239.056C168.27 239.056 167.918 239.188 167.63 239.452C167.342 239.708 167.198 240.024 167.198 240.4V243.244C167.198 243.548 167.086 243.768 166.862 243.904C166.646 244.04 166.31 244.108 165.854 244.108V238.96Z" fill="#323232"/>
<path d="M289.564 244.108C288.972 244.108 288.436 243.996 287.956 243.772C287.476 243.54 287.1 243.224 286.828 242.824C286.556 242.416 286.42 241.964 286.42 241.468C286.42 241.156 286.548 240.936 286.804 240.808C287.068 240.68 287.428 240.616 287.884 240.616C287.86 240.744 287.848 240.916 287.848 241.132C287.848 241.676 287.996 242.096 288.292 242.392C288.588 242.688 289.012 242.836 289.564 242.836C290.108 242.836 290.528 242.68 290.824 242.368C291.128 242.056 291.28 241.608 291.28 241.024V236.86H289.984C289.304 236.86 288.964 236.44 288.964 235.6H292.024C292.224 235.6 292.392 235.664 292.528 235.792C292.664 235.92 292.732 236.076 292.732 236.26V241.024C292.732 241.616 292.596 242.148 292.324 242.62C292.052 243.084 291.676 243.448 291.196 243.712C290.716 243.976 290.172 244.108 289.564 244.108ZM299.347 243.04C299.347 243.384 299.239 243.648 299.023 243.832C298.815 244.016 298.495 244.108 298.063 244.108V243.364C298.135 243.276 298.227 243.156 298.339 243.004L298.267 242.956C298.027 243.316 297.731 243.6 297.379 243.808C297.035 244.008 296.643 244.108 296.203 244.108C295.787 244.108 295.411 244.016 295.075 243.832C294.747 243.64 294.491 243.38 294.307 243.052C294.123 242.716 294.031 242.336 294.031 241.912V238.756C294.031 238.452 294.139 238.232 294.355 238.096C294.579 237.96 294.923 237.892 295.387 237.892V241.828C295.387 242.172 295.487 242.444 295.687 242.644C295.887 242.836 296.183 242.932 296.575 242.932C296.999 242.932 297.343 242.804 297.607 242.548C297.871 242.292 298.003 241.972 298.003 241.588V238.756C298.003 238.452 298.111 238.232 298.327 238.096C298.551 237.96 298.891 237.892 299.347 237.892V243.04ZM300.854 238.96C300.854 238.248 301.282 237.892 302.138 237.892V238.624C302.042 238.728 301.95 238.852 301.862 238.996L301.934 239.044C302.166 238.692 302.47 238.412 302.846 238.204C303.23 237.996 303.65 237.892 304.106 237.892C304.522 237.892 304.886 237.984 305.198 238.168C305.51 238.344 305.75 238.592 305.918 238.912C306.094 239.232 306.182 239.588 306.182 239.98V243.244C306.182 243.548 306.07 243.768 305.846 243.904C305.622 244.04 305.286 244.108 304.838 244.108V240.16C304.838 239.832 304.738 239.568 304.538 239.368C304.346 239.16 304.062 239.056 303.686 239.056C303.27 239.056 302.918 239.188 302.63 239.452C302.342 239.708 302.198 240.024 302.198 240.4V243.244C302.198 243.548 302.086 243.768 301.862 243.904C301.646 244.04 301.31 244.108 300.854 244.108V238.96Z" fill="#323232"/>
</svg>
