<svg width="48" height="44" viewBox="0 0 48 44" fill="none" xmlns="http://www.w3.org/2000/svg">
<g clip-path="url(#clip0_631_3339)">
<path d="M7.0488 34.6547C6.90125 34.2464 6.93813 33.7973 7.15132 33.4062C7.36452 33.015 7.73657 32.7139 8.18563 32.569L17.3288 29.6188" fill="white"/>
<path d="M4.84748 23.3326L13.9907 20.3824L18.4415 32.6976L9.29835 35.6478C8.84929 35.7927 8.36 35.7695 7.93813 35.5832C7.51626 35.397 7.19636 35.063 7.0488 34.6547L3.71066 25.4183C3.5631 25.01 3.59998 24.5609 3.81317 24.1698C4.02637 23.7786 4.39842 23.4775 4.84748 23.3326Z" fill="white"/>
<path d="M7.0488 34.6547C6.90125 34.2464 6.93813 33.7973 7.15132 33.4062C7.36452 33.015 7.73657 32.7139 8.18563 32.569L17.3288 29.6188M7.0488 34.6547C7.19636 35.063 7.51626 35.397 7.93813 35.5832C8.36 35.7695 8.84929 35.7927 9.29835 35.6478L18.4415 32.6976L13.9907 20.3824L4.84748 23.3326C4.39842 23.4775 4.02637 23.7786 3.81317 24.1698C3.59998 24.5609 3.5631 25.01 3.71066 25.4183L7.0488 34.6547Z" stroke="#1E1E1E" stroke-width="1.46984" stroke-linecap="round" stroke-linejoin="round"/>
</g>
<g clip-path="url(#clip1_631_3339)">
<path d="M12.0702 26.7997C12.0272 26.3702 12.1788 25.941 12.4914 25.6067C12.8041 25.2724 13.2523 25.0602 13.7374 25.0169L23.6148 24.135" fill="white"/>
<path d="M12.7657 15.3001L22.6431 14.4182L23.9387 27.374L14.0613 28.2558C13.5762 28.2991 13.0939 28.1701 12.7205 27.897C12.3471 27.6239 12.1131 27.2292 12.0702 26.7997L11.0985 17.0828C11.0555 16.6533 11.207 16.2242 11.5197 15.8899C11.8324 15.5555 12.2806 15.3434 12.7657 15.3001Z" fill="white"/>
<path d="M12.0702 26.7997C12.0272 26.3702 12.1788 25.941 12.4914 25.6067C12.8041 25.2724 13.2523 25.0602 13.7374 25.0169L23.6148 24.135M12.0702 26.7997C12.1131 27.2292 12.3471 27.6239 12.7205 27.897C13.0939 28.1701 13.5762 28.2991 14.0613 28.2558L23.9387 27.374L22.6431 14.4182L12.7657 15.3001C12.2806 15.3434 11.8324 15.5555 11.5197 15.8899C11.207 16.2242 11.0555 16.6533 11.0985 17.0828L12.0702 26.7997Z" stroke="#1E1E1E" stroke-width="1.46984" stroke-linecap="round" stroke-linejoin="round"/>
</g>
<g clip-path="url(#clip2_631_3339)">
<path d="M15.4063 17.9845C15.5319 17.5697 15.8384 17.2223 16.2585 17.0185C16.6785 16.8147 17.1777 16.7714 17.6462 16.898L27.1851 19.4763" fill="white"/>
<path d="M20.4872 7.51432L30.026 10.0926L26.2381 22.6042L16.6993 20.0259C16.2308 19.8993 15.8313 19.6131 15.5889 19.2303C15.3464 18.8474 15.2807 18.3993 15.4063 17.9845L18.2472 8.60082C18.3728 8.18603 18.6793 7.83854 19.0994 7.63478C19.5195 7.43102 20.0187 7.38769 20.4872 7.51432Z" fill="white"/>
<path d="M15.4063 17.9845C15.5319 17.5697 15.8384 17.2223 16.2585 17.0185C16.6785 16.8147 17.1777 16.7714 17.6462 16.898L27.1851 19.4763M15.4063 17.9845C15.2807 18.3993 15.3464 18.8474 15.5889 19.2303C15.8313 19.6131 16.2308 19.8993 16.6993 20.0259L26.2381 22.6042L30.026 10.0926L20.4872 7.51432C20.0187 7.38769 19.5195 7.43102 19.0994 7.63478C18.6793 7.83854 18.3728 8.18603 18.2472 8.60082L15.4063 17.9845Z" stroke="#1E1E1E" stroke-width="1.46984" stroke-linecap="round" stroke-linejoin="round"/>
</g>
<g clip-path="url(#clip3_631_3339)">
<path d="M25.0382 11.2118C25.3476 10.8946 25.7867 10.7143 26.2589 10.7106C26.7311 10.707 27.1976 10.8803 27.5559 11.1923L34.8509 17.5461" fill="white"/>
<path d="M34.557 4.01598L41.852 10.3697L32.5172 19.9382L25.2222 13.5844C24.8639 13.2724 24.6433 12.8471 24.6087 12.4021C24.5742 11.9572 24.7287 11.529 25.0382 11.2118L32.0392 4.03541C32.3487 3.7182 32.7878 3.53794 33.26 3.5343C33.7321 3.53065 34.1987 3.70392 34.557 4.01598Z" fill="white"/>
<path d="M25.0382 11.2118C25.3476 10.8946 25.7867 10.7143 26.2589 10.7106C26.7311 10.707 27.1976 10.8803 27.5559 11.1923L34.8509 17.5461M25.0382 11.2118C24.7287 11.529 24.5742 11.9572 24.6087 12.4021C24.6433 12.8471 24.8639 13.2724 25.2222 13.5844L32.5172 19.9382L41.852 10.3697L34.557 4.01598C34.1987 3.70392 33.7321 3.53065 33.26 3.5343C32.7878 3.53794 32.3487 3.7182 32.0392 4.03541L25.0382 11.2118Z" stroke="#1E1E1E" stroke-width="1.46984" stroke-linecap="round" stroke-linejoin="round"/>
</g>
<ellipse cx="25.0748" cy="40.277" rx="22.9254" ry="3.72308" fill="#5B5B5B"/>
<defs>
<clipPath id="clip0_631_3339">
<rect width="17.0798" height="15.7138" fill="white" transform="matrix(0.951686 -0.307074 0.339895 0.940463 0 23.5215)"/>
</clipPath>
<clipPath id="clip1_631_3339">
<rect width="17.6297" height="15.6245" fill="white" transform="matrix(0.996038 -0.0889277 0.099507 0.995037 7.88037 14.4292)"/>
</clipPath>
<clipPath id="clip2_631_3339">
<rect width="17.5664" height="15.6869" fill="white" transform="matrix(0.965358 0.260928 -0.289762 0.957099 16.2729 5.02173)"/>
</clipPath>
<clipPath id="clip3_631_3339">
<rect width="17.1983" height="16.0411" fill="white" transform="matrix(0.754078 0.656785 -0.69831 0.715795 31.978 0)"/>
</clipPath>
</defs>
</svg>
